<svg width="143" height="64" viewBox="0 0 143 64" fill="none" xmlns="http://www.w3.org/2000/svg">
<g clip-path="url(#clip0_4_4)">
<path d="M142 32C142 49.1046 127.888 63 110.444 63C92.9991 63 78.8871 49.1046 78.8871 32C78.8871 14.8954 92.9991 1 110.444 1C127.888 1 142 14.8954 142 32Z" stroke="#777777" stroke-width="2"/>
<rect x="74.871" y="27.6804" width="9.04839" height="9.34435" fill="white"/>
<path d="M2.8009 35.1886L78.5022 35.1886L114.816 35.1886L102.638 47.3045C102.173 47.8442 101.93 48.5384 101.958 49.2483C101.985 49.9583 102.282 50.6317 102.787 51.1341C103.293 51.6365 103.97 51.9308 104.685 51.9583C105.399 51.9857 106.098 51.7442 106.641 51.2821L123.673 34.3564C124.007 34.0307 124.257 33.6301 124.403 33.1883C124.549 32.7466 124.586 32.2765 124.511 31.8176C124.382 31.2864 124.113 30.7992 123.73 30.4071L106.698 13.4815C106.443 13.1862 106.13 12.9464 105.778 12.7771C105.426 12.6077 105.042 12.5126 104.651 12.4976C104.26 12.4826 103.87 12.548 103.506 12.6898C103.142 12.8317 102.811 13.0468 102.534 13.3217C102.258 13.5966 102.041 13.9254 101.898 14.2874C101.756 14.6494 101.69 15.0368 101.705 15.4253C101.72 15.8138 101.816 16.195 101.986 16.545C102.157 16.8949 102.398 17.2061 102.695 17.459L114.816 29.5467L2.8009 29.5467C2.04803 29.5467 1.32599 29.8439 0.793629 30.373C0.261268 30.902 -0.0378072 31.6195 -0.0378072 32.3677C-0.0378072 33.1158 0.261268 33.8334 0.793629 34.3624C1.32599 34.8914 2.04803 35.1886 2.8009 35.1886Z" fill="black"/>
</g>
<defs>
<clipPath id="clip0_4_4">
<rect width="143" height="64" fill="white"/>
</clipPath>
</defs>
</svg>
