<svg width="24" height="24" viewBox="0 0 24 24" fill="none" xmlns="http://www.w3.org/2000/svg">
<rect width="24" height="24" rx="1" fill="white"/>
<path d="M7.875 9.375H4.875C4.66789 9.375 4.5 9.54289 4.5 9.75V19.5C4.5 19.7071 4.66789 19.875 4.875 19.875H7.875C8.08211 19.875 8.25 19.7071 8.25 19.5V9.75C8.25 9.54289 8.08211 9.375 7.875 9.375Z" fill="#16222E"/>
<path d="M6.36002 7.87494C6.73148 7.87791 7.09546 7.77048 7.40576 7.56626C7.71607 7.36205 7.95873 7.07027 8.10295 6.72793C8.24716 6.38559 8.28644 6.00813 8.2158 5.64343C8.14515 5.27873 7.96777 4.94324 7.70615 4.67951C7.44454 4.41578 7.11048 4.23571 6.74636 4.16214C6.38224 4.08857 6.00448 4.12482 5.66099 4.26628C5.3175 4.40774 5.02378 4.64805 4.81708 4.9567C4.61038 5.26536 4.50003 5.62846 4.50002 5.99994C4.49903 6.24519 4.54636 6.48822 4.6393 6.71518C4.73224 6.94213 4.86897 7.14855 5.04169 7.32266C5.2144 7.49677 5.41972 7.63516 5.64592 7.72992C5.87212 7.82468 6.11477 7.87396 6.36002 7.87494Z" fill="#16222E"/>
<path d="M16.875 19.875H19.125C19.2245 19.875 19.3198 19.8355 19.3902 19.7652C19.4605 19.6949 19.5 19.5995 19.5 19.5V13.2C19.5 10.3725 17.9025 9.00005 15.6675 9.00005C15.2249 8.9843 14.784 9.06161 14.3731 9.22697C13.9623 9.39234 13.5908 9.64208 13.2825 9.96005C13.2406 10.0055 13.1854 10.0366 13.1247 10.0487C13.0641 10.0608 13.0012 10.0534 12.945 10.0275C12.8883 10.0064 12.8393 9.96853 12.8045 9.919C12.7697 9.86947 12.7507 9.81058 12.75 9.75005C12.75 9.65059 12.7105 9.55521 12.6402 9.48488C12.5698 9.41456 12.4745 9.37505 12.375 9.37505H10.125C10.0255 9.37505 9.93016 9.41456 9.85983 9.48488C9.78951 9.55521 9.75 9.65059 9.75 9.75005V19.5C9.75 19.5995 9.78951 19.6949 9.85983 19.7652C9.93016 19.8355 10.0255 19.875 10.125 19.875H12.375C12.4745 19.875 12.5698 19.8355 12.6402 19.7652C12.7105 19.6949 12.75 19.5995 12.75 19.5V13.875C12.75 13.3778 12.9475 12.9009 13.2992 12.5492C13.6508 12.1976 14.1277 12 14.625 12C15.1223 12 15.5992 12.1976 15.9508 12.5492C16.3025 12.9009 16.5 13.3778 16.5 13.875V19.5C16.5 19.5995 16.5395 19.6949 16.6098 19.7652C16.6802 19.8355 16.7755 19.875 16.875 19.875Z" fill="#16222E"/>
</svg>
