<svg width="24" height="24" viewBox="0 0 24 24" fill="none" xmlns="http://www.w3.org/2000/svg">
<rect width="24" height="24" rx="1" fill="white"/>
<path d="M21.49 8.8301C21.5434 8.78574 21.5834 8.72744 21.6056 8.6617C21.6278 8.59595 21.6313 8.52533 21.6158 8.4577C21.6002 8.39006 21.5662 8.32807 21.5175 8.27862C21.4688 8.22917 21.4074 8.1942 21.34 8.1776L20.7475 8.0351C20.6929 8.02138 20.6422 7.99531 20.5993 7.9589C20.5564 7.92249 20.5224 7.87672 20.5 7.8251C20.476 7.77473 20.4636 7.71964 20.4636 7.66385C20.4636 7.60806 20.476 7.55297 20.5 7.5026L20.8375 6.8351C20.8696 6.76975 20.8819 6.69647 20.8731 6.62421C20.8642 6.55195 20.8345 6.48383 20.7876 6.42817C20.7407 6.3725 20.6786 6.33169 20.6089 6.31073C20.5392 6.28976 20.4648 6.28954 20.395 6.3101L18.895 6.7301C18.8398 6.74533 18.7817 6.74715 18.7256 6.73541C18.6695 6.72367 18.617 6.69871 18.5725 6.6626C18.0154 6.24475 17.3529 5.99029 16.6593 5.92775C15.9657 5.86521 15.2683 5.99705 14.6454 6.3085C14.0226 6.61995 13.4987 7.0987 13.1326 7.69111C12.7664 8.28352 12.5725 8.96618 12.5725 9.6626V9.9326C12.5728 9.97866 12.5562 10.0232 12.5258 10.0578C12.4953 10.0924 12.4532 10.1146 12.4075 10.1201C10.3 10.3676 8.2825 9.2951 6.1075 6.7901C6.06163 6.73596 6.00134 6.69594 5.93363 6.6747C5.86592 6.65346 5.79358 6.65186 5.725 6.6701C5.65967 6.69756 5.60368 6.74332 5.56376 6.80186C5.52384 6.86041 5.5017 6.92926 5.5 7.0001C5.19606 8.23385 5.31762 9.53408 5.845 10.6901C5.86141 10.72 5.87002 10.7535 5.87002 10.7876C5.87002 10.8217 5.86141 10.8552 5.845 10.8851C5.82483 10.9149 5.79618 10.938 5.76276 10.9514C5.72933 10.9647 5.69267 10.9678 5.6575 10.9601L4.81 10.7951C4.75004 10.787 4.689 10.7929 4.63173 10.8124C4.57445 10.8319 4.52251 10.8645 4.48 10.9076C4.4391 10.9512 4.40898 11.0037 4.39205 11.061C4.37511 11.1183 4.37184 11.1788 4.3825 11.2376C4.44725 11.8132 4.64063 12.3668 4.94831 12.8576C5.256 13.3483 5.67011 13.7636 6.16 14.0726C6.18935 14.0904 6.21326 14.1158 6.22913 14.1463C6.245 14.1767 6.25222 14.2109 6.25 14.2451C6.24963 14.2806 6.23875 14.3153 6.21873 14.3446C6.19871 14.374 6.17045 14.3968 6.1375 14.4101L5.7325 14.5676C5.63658 14.6096 5.56112 14.6878 5.5225 14.7851C5.50228 14.8325 5.49186 14.8835 5.49186 14.9351C5.49186 14.9867 5.50228 15.0377 5.5225 15.0851C5.74232 15.5661 6.07552 15.9866 6.49352 16.3106C6.91153 16.6345 7.40187 16.8522 7.9225 16.9451C7.95952 16.9561 7.9926 16.9775 8.01785 17.0068C8.0431 17.036 8.05946 17.0719 8.065 17.1101C8.06871 17.1502 8.05988 17.1906 8.03973 17.2255C8.01959 17.2604 7.98911 17.2882 7.9525 17.3051C6.93655 17.7211 5.84779 17.9302 4.75 17.9201C4.65054 17.9002 4.54726 17.9206 4.46287 17.9769C4.37848 18.0332 4.31989 18.1206 4.3 18.2201C4.28011 18.3196 4.30054 18.4228 4.3568 18.5072C4.41306 18.5916 4.50054 18.6502 4.6 18.6701C6.5096 19.5793 8.59048 20.0727 10.705 20.1176C12.5645 20.1451 14.3907 19.6233 15.955 18.6176C17.2424 17.7598 18.2971 16.5964 19.0248 15.2313C19.7525 13.8662 20.1305 12.342 20.125 10.7951V10.1426C20.1249 10.0881 20.137 10.0342 20.1604 9.98488C20.1837 9.93559 20.2178 9.89211 20.26 9.8576L21.49 8.8301Z" fill="#16222E"/>
</svg>
