<svg width="24" height="18" viewBox="0 0 24 18" fill="none" xmlns="http://www.w3.org/2000/svg">
<path d="M20.06 0.5H3.94C2.89987 0.515488 1.90669 0.935567 1.17113 1.67113C0.435567 2.40669 0.0154883 3.39987 0 4.44L0 13.56C0.0154883 14.6001 0.435567 15.5933 1.17113 16.3289C1.90669 17.0644 2.89987 17.4845 3.94 17.5H20.06C21.1001 17.4845 22.0933 17.0644 22.8289 16.3289C23.5644 15.5933 23.9845 14.6001 24 13.56V4.44C23.9845 3.39987 23.5644 2.40669 22.8289 1.67113C22.0933 0.935567 21.1001 0.515488 20.06 0.5ZM16.54 9L9.77 13.36C9.69088 13.4149 9.59624 13.4429 9.5 13.44C9.41624 13.4404 9.33371 13.4198 9.26 13.38C9.18178 13.336 9.11656 13.2722 9.07091 13.1949C9.02526 13.1177 9.0008 13.0297 9 12.94V4.28C9.0008 4.19027 9.02526 4.10234 9.07091 4.02508C9.11656 3.94783 9.18178 3.88398 9.26 3.84C9.33682 3.79318 9.42504 3.76842 9.515 3.76842C9.60496 3.76842 9.69318 3.79318 9.77 3.84L16.54 8.17C16.6102 8.21533 16.6679 8.27752 16.7078 8.35088C16.7478 8.42425 16.7687 8.50646 16.7687 8.59C16.7687 8.67354 16.7478 8.75575 16.7078 8.82912C16.6679 8.90248 16.6102 8.96467 16.54 9.01V9Z" fill="#FBFBFB"/>
</svg>
